<mxfile host="app.diagrams.net" modified="2021-03-02T22:26:44.521Z" agent="5.0 (Macintosh; Intel Mac OS X 10_15_7) AppleWebKit/537.36 (KHTML, like Gecko) Chrome/88.0.4324.96 Safari/537.36" etag="aHWJkfo0JRGQgYADc858" compressed="false" version="14.4.3" type="github">
  <diagram id="4z2N1b6vyOkj422KI1eR" name="Page-1">
    <mxGraphModel dx="1186" dy="612" grid="1" gridSize="10" guides="1" tooltips="1" connect="1" arrows="1" fold="1" page="1" pageScale="1" pageWidth="827" pageHeight="1169" math="0" shadow="0">
      <root>
        <mxCell id="0" />
        <mxCell id="1" style="locked=1;" parent="0" />
        <mxCell id="CT85N0z9d5aV_AW8zhn_-1" value="" style="ellipse;whiteSpace=wrap;html=1;" parent="1" vertex="1">
          <mxGeometry x="130" y="90" width="120" height="80" as="geometry" />
        </mxCell>
        <mxCell id="_772xL04JrfMcwc0xYAd-1" value="" style="shape=callout;whiteSpace=wrap;html=1;perimeter=calloutPerimeter;" vertex="1" parent="1">
          <mxGeometry x="210" y="140" width="120" height="80" as="geometry" />
        </mxCell>
        <mxCell id="_772xL04JrfMcwc0xYAd-2" value="" style="rhombus;whiteSpace=wrap;html=1;" vertex="1" parent="1">
          <mxGeometry x="250" y="70" width="80" height="80" as="geometry" />
        </mxCell>
        <mxCell id="_772xL04JrfMcwc0xYAd-3" value="Untitled Layer" style="locked=1;" parent="0" />
        <mxCell id="_772xL04JrfMcwc0xYAd-4" value="" style="ellipse;shape=cloud;whiteSpace=wrap;html=1;" vertex="1" parent="_772xL04JrfMcwc0xYAd-3">
          <mxGeometry x="280" y="230" width="120" height="80" as="geometry" />
        </mxCell>
        <mxCell id="_772xL04JrfMcwc0xYAd-5" value="Actor" style="shape=umlActor;verticalLabelPosition=bottom;verticalAlign=top;html=1;outlineConnect=0;" vertex="1" parent="_772xL04JrfMcwc0xYAd-3">
          <mxGeometry x="230" y="250" width="30" height="60" as="geometry" />
        </mxCell>
        <object label="Untitled Layer" aaaa="" id="_772xL04JrfMcwc0xYAd-8">
          <mxCell parent="0" />
        </object>
        <mxCell id="_772xL04JrfMcwc0xYAd-9" value="" style="shape=image;verticalLabelPosition=bottom;labelBackgroundColor=#ffffff;verticalAlign=top;aspect=fixed;imageAspect=0;image=data:image/png,iVBORw0KGgoAAAANSUhEUgAAAIAAAACACAYAAADDPmHLAAAABHNCSVQICAgIfAhkiAAAG5ZJREFUeJztfXuYXFWV7+93qqpfeVdVR3nkRjIXIU6ET5LriM44A6MgOoyPMUEG6QeJiYJJV3UQX9xrroAKhFQ34WEw0FXdwAxBUGaEcRQHX8yAyhV5evEZMBFTVd0dSPpVVec3f1R3qKpzqupU1anuzuP3ffm+zt77rL26zzp7r732egDHUDEEMdEd/duZ5sMNcKYZOBwR7xo4hUbmOQF9Gm8JLb5lzYGZ5qlaGDPNwGEJZs4AaBBcazSOPpMM971nplmqFscEoAqQXJHz36UCH0yEY9tnjKEacEwAqoG0Ir+BBqClM8NMbTgmANWAXGlpE/59BjipGccEoEIMh+9aBuCE/FaZIL85IwzVCO9MM1AIrd/Rkpzb9CGa+I0vhRfm39yerIbGUEvjW0zgEwZwq7+n41G3+Eshc47l6CQ+F+xp3+PWHNOJWScAg3N9AQgDIjDRAMRD0RGCo84pyJMEF4DZI64pnKEtj5zGLWel3eCPMN9lOT0T33OD9kzAq9W7PMkTR2+g8GOBzwZGRnfztg0jbhBXeFfzIEaWyeTfwSCDkbavVEqDZAuAlgqeKPzv8uTw7i0Arqx07kIIYhKxs2y6vlUr7ZkCteURb3L/i6l6TyRorCGj0xbc2PmrUuOS3XcskTwvujq3NO4xjVX+G9ueqYVOItR/NqiCr137A39oCfDeNRnLvKt3eV457uCylMFzQKwMRNrXElQtPLiNadsCCDZNeNgD4H3TNeehucnGjKErAXykNkL6oE3jguSJo+lEOGbpSWIUuXp2Mtz/J0Tw2Zp4cBnTegog8N7BUOy86Zzz0NzEUzUTEd5dI4Er4uH+82vmw0VM+zHQBG7Q6l2e6Z7XMGvbpwc39a8AcUptXNAgzOhQqO8NtdFxD9NvByCWJ04YCU/nlIJe9ve217QCmIbWu8MN/Wmy3x1atWNmDEHEvOmdDjXZAQQR0D+4xo8w5hatWjETApAmeNu0zij+oJbHE1397wN5vFvsgMbjrtGqEdNvCJIeCfZ0FLeapRr2w2t+VqaeMQz9LjPestvpfbs6+pqSi4xXYfm9+HAtLJPorOV5Cz2YP3KTXi3I+UPpVQB7IP4BUM2GIBFvJfj6wnaC/1zqucD2j74CoGKDEQAMLfCsApT38gUkWnvanq+GHgDEr7h9nib0HhYYmASMEippXZTgmTRk5Tam/GyZPQLALWelX7ksFpx/c0fFNvdSSISiewqNcpLGmfF+3c158uhTb7Vp/VktNJnybgQLLZEyffCtWBi56Lelnh0MRd9nFlgJBT7PyJoKTNv1hQEA1Vy4lEKye+DtdnsmiR9PfuF1gYi3FLYZ4n9WTW/9Dp+ET1ragUfLvfzsOJ5R2OaKPcJF1EUJNJX5sG2H+EA95suZwPoHFx+pltpgS/NlJI4rbDeAPkfcAKdZ+IH+X7X81AN1EQACVmufkGn08p56zAcAr268oxXAqXlTSiOLFi15rBp6Wr3LIypk0zXkTy++2xER6k1WwqyKn3rBdQFIhPqXAzzV0kE8Pm9r2z6355vCuGGcl3XNypmSfLLaa+DE8aPrAFjcvATdz+3vHS/3vLY84pXwZwXNE/6RsZp0Erfh/gpAbbBtl+q7/BMWP30J1X9t1GZro0wDiDh5PDG4+3SSjfmP4wXetqHuN6+VwFUBEERIq226JhozpqN9s/q58ZeFbYb4nWpoJbv7P0byZJtJvheIdDzriIjH+F+WtlmmAAIuG4IS4YG/I6zav4CH522/JO7mXLkY7IqdZhLLCpqH/HubKjYAJTfeOd9U5mq7iBlS24DJyKDwwMrWSFvR5ZwyzwQLbAfSz8vNnwjHLhUwTOpPhrTPl9bLc7d3JtzwI1B4V3PSOLiUJt4AepZ4NXGfqwJAmZcU/tIAYJiMujlPIUzqIzZBTt+3c9IoS8uTvp7gYmuPng1EOr8NAINdAx+mdOv+TX1nFnVwIf+6sMkjo+yWJGArgWaIMEGMe4HxcD8SsPobVIokRgHTgABAQibT8F+ubQH7wzv9Is8tbJcU9y9a8g235rGDQIuTCaF/rZTOYCj6DpKX2PWRRu/Uzyb1SRCBCYMPDn/irkWFYxOb+06FVYGcWGQGf1opT/VGSQGIX3H7vEQoerUTQhPyhQg0F7aTuM8th0w7DIX63kDgzXmNUooNLfdXQmffpbvmZsgB2GyLAn7tf6npDiDrF0DqLwGA5MmpptQD2vJI/jNp4/2WCYQnnJwephslBYAT3msAfia+KWoNhMjB5B9gnV2fV56v1cBfWaRhdKDAUC/wcf+1a/ZXQsdoGPkqgZPs+mjqqqntxDTMzbnHTYJ/lRzefXs+MVk9h8hZ6TlcVAASof7lIDaA8MBAb7FxAJAYenGtncVMwlMLey6us+VL/1jYQuihiqmQVq0dAIRngr0d/UBWQRRotXKSbYlw9Epg0nwMvs0ypkaPpHqhxAqgmwA0AADJd8TDMcsfegqk1V4+2b6jRv5KYqgr+k6745rPVMUXTgQug2CjafMLUz/Jk76MxNwiJP5vsit2wVBL4zkE5uR2SIoHe9tmjQ9ALmwFINnVvxrE2bltBL6kjQ81Fo4dDMXOA7GisF1SPJBuvb2w3U1kDH7M2qpflnM9t0Mw0v6wgPyraun7wZ6213QJ8tXiFGiY1B0maDEfk/xxpfxMFywCoI0PNcrQ9TZjlya8+z5X2GgSW2wJk9F6Kj2Dn961AJBV2QKqMv4AQFMm0wVoEMje98tgnlUzGGm/CdJdxZ4n2QLiXYXtQnUGqemARQDimQM+SU22o8XuRDh2KDAy2dW/GoDNHTwmzFS6xzUubWCOj3wKoJ1vYUO1NOdtvyQOTUUQ6frWbe0vFI4JDGudVIlFT2azNzNrA0ctArD4ljUHQMP2qyYxV9BWIGsNk2F+sQjdB1pvWrvXRT7zoPCuZpG2dw4S2g503f26amkHezpupbAjuGDpVXb9jHaO+ej9IIAhhySfn3t958vV8lNv2FoCWyNtX42Hoh8jbRwagDXJ7oHtSTN2uu2tHwCYvMFlPvOQxFgXgaBdH8mWMaQ+D2BTtfQDPe0fL9W/MHLRbxPhWCeg+wtvIG04qsgfgVIPiBEIQyKHDJiDIIaVQcVWzUJ4wGbTwOsBHidgcQO98aJJogZD0XeYxA/tfkFBT0z6+51gfVKPBSMdZ9bKbDFo/Q5fsqXx96W8dCUcaMpkltXz/gEAEuHYNQAselEuaOIjgd72uvlB1Iqi0uvv6XhU4r12fQRXwvblA4ZYbFtwBck5TRvKuWiTmDvmNeoegxeMtH8e0ndLjTENfWomIqGcovTylU53T3oLO4KgH/l72v+tZq6K0V+/owWSoxdLYN3+8E5/vXiZgnfcdwGk3xfngysHTxz9cr35qBYlBSCryBklrYCHIMhjGiWXw1qRaGm6ynmABuel5av7KrDw1ouGAP661BgJ3fFu27wCM46yt4HmeNO1AhLlxgn4tr+3rW4Gj/2b+k4Gdan95LK9ZROwPmsvqB+Gwv1/DVi9kfJAeCjF6s1LNSgrAItvWXPAEG4sPUqm18Dn3WLKDinD2E7QYp+Q9JvGjPk+AQctDxHzzYnRz9STr7R0deFllD24RBMH66YcVwtH/gB+Nm+VVFyjFu9ftK29rLdLtYiH+88HYfE1AAACN0wacP6pyOMbkhvvnF8PvpJd/eeSVlc0W0h7/ZGOWZdKzpEAMLJmlCWcIYn65chTeFczZBaZWy8FFi79GgD4MvoKADu/g0WmJ3O563xBNGl+yfEDxNdnW3oYoAKn0MCwIoJsLVqi1rrHUj6SGvkayUL3agAAgciUs8nC7R2/AfCg/TitdfsolgzFPmVnKAMAAb8obDOgnW7O7xYcCwCjnWMAtxXpfVuiq8/+Pr0GJEL9HSAvsusT9LI/vfiWPC5o2geVkscnTxgrep1dKYY3Rv9M5P8pwtePDGbOzz0+S3rSH+l82q353URFPoHBdOuNEv5o1yeDri6z8a6BU0CzqPJpgF8pvG0MbOt8TIL9SYSm/QmiCqQ8vKPwzv81vnB1YNslLwl87S6BdBZJNAOoSAC4/b3jJO3v+IX3H/hUnyUcvBpo/Q4fDPOeIrd9APScP9JmKxyEWeQegm+Lh/tX1cpbMhzrIvFOe7bweCDS8R0ACEbatkp6EsBE4wTuqHXeeqFir+CGCfUIsIQ3k2wcSxt2sXQVIzmncQeB04v1E9pcTKEK9nR+E4JtPgBCNeUmSnb1nyvgumL9Eg450BIUpfWQvu129LWbqFgA5t/cnqRg63Il6RKt3+GrhaFEuP8qgEUzcgh4aMo/vzhkm7tfwAdfuSwWqIavoe6B02WY96CYv4HweGtve57fX7C386dGY0tbNfNNF6qKCzBMXgfILGwn2ZpobrL1q3eCeDi6GVJRg5KkcRBlv+LAyPhOO7sFgeZxHzZWyldy450nZmQ+CLCYJS/thWGrY1TqnTzdqEoA/De2PQPx+7adRFXKViIcu4bi9aWtarzZzkvHMuq2DSnCfpUidUk265czHOi6+3Xypv8dRW4/s9DO+ns/1wdVRwZJ9oYhEqdVWlEr0RVtA/C50i9fzwZHxhybdQ3qVvseLkmEYo5SxiZC/cvHjNTjAK1x/lNcQS/Ll7nCKV+zDVULQHa/0y/t+mSWX6Zz4TPS37K15U/Rk8Y95MWVhFb7I51PC3rCro9A2Uydya7YBaAehU2OgDxaMj7bet1ax1fmsw01xQZShq3fP8lzJytrOMKCyLpBQEWzhxngNdXcNdCEXUbOPYFhlYzxT4SjvTLwzwAscX95EO4P9rTVNfC13qhJADITTTsl2ObwE82KsoE2ZHQtZOf3psf8PW2O4hMtTzZm+gpXFpm4KmvVLAX+qTxxPB8YGbu4Gr5mE2oSgMW3rDlAWDN/SLpj0baLLfbwUlhwY+evROR5Ewl62SNdWO0lSut1a1+FckOy9Fywt61sltLAwbHrAewuOkB4BR7zQ24V1phJ1BweTsOTZ4+XFPc0tlSlFHnN1wJSBBykaXxgUU9nUXcrR/zlpaXl55wIE2/bkIJo6xoPyKS4LnhDp63+c7jBldKxiVDs6anwMIGfaI20fbV6WtGfADwD4Jq8sKwaEA/HfgXoj62RDnsTbvHnnsy3SMoU+JnWSLtd5NRhCVcSRIiaUoR+VsvLz9JiD4Er3Hr5AGBAAwZV8apkmPz0a4whA2HTkfTyAZdWgOTGO+fLk3kJ4jmzMQpWq3d5qkkXAwCJUPQ7AP4GMNYf7hp/XZEI9Z9dftThh6HugdOT4eiameajXjhWPt5FJMPRPzfJlMaa9x4uJeXzBGDfpbvmejwThn/8YBqNSzJ4+UC62qXzaEQ8HP0hwb8CAEFjEIdIDUkcJDQIIgkhLjJhpD076pk42ynygkONhtFbRFyc9DYBiAMnAtlyaDIhZASYADIkMhJ+09rTYcnOfTSDQmbqkyLYBOI4gMdlM+cd6gCkcT/8ZVztpwcF0cH6//a7Ag0QRl4PMauvOWcEdBbBS/Lp2ZIxLP8YSD7n9EFKxS1lRykkWlLoFBk4a/IF5gmANy3HmS8E/s59dg5vEHDmbWRUX8TCbeQJwILt7b+V5GhpolS2YsbRBtGZAGgi/R/15sUp8vPrgyLo7PhC4w914egwBqXS18dZ7K5n+pxKYWcKdlTQyGNw1nq6zgSS3XcsAenEIfZJJ/QEcag79hZLGlqXYZMXV6NOgl3N1DEByIWZ8ZxeLlvQJH5S2KDVuzzDS0ZPywhnAlol4LSEYssptgwm9ywAUDd7gVW6SEd33H5vwzEByAGpNzkyrFKPD4cGzkgjcyaIldmXPbKcmqovOPn5TZON1iIAhEYdzD4xm2rfuYV4uH9Vs+l9aU7vhfsqdkIh7DOmFUAmHkzTbJz6G0/ny7aDdQUQHewAOuJePgAQ+umYkcJYKJaKM5okkAR4UMIEgTFB4yBJoQlEk6QmEk0CGyQdb1MrwzpHYR2hGYadDuArJwECZ4UVy3VIKZA+kD4Cr0f236EiKMw15wIgc7/iw/NezaK2kCirydLhSeFwg8i6FbaYrbDqrWLZY4eAI3IFIDQx0zxMN6xZQB2sABDKuFUfnhA4q2r6TQesWwCcbAHOzMWHHYTZJQDS3kymwRKE6yZsTgHylVNoxCNzBSBmSgBkSvg9gWcE/oLEE43pzH/WO9cxYF8hy1dOnz1ylUBM1E2XFyQoQXI3gN9B+jVgvEAj80v/gYmnZirIxGoIYnkl8EjVASD8VNArU2d7Qo0Smkg0TP0fokRMUBoXkCLRVDyVTQ485ptaZ2Ewic3LlrecaUrgEbkCtPa0V5xJLBGOfh3AP5QcJO2drZFENrUAHCiBR6gOUB1sSsRZMatKxufCugWIvqPVFFwp9m/qOzlVMnPIJFTeA2gyg9kqygyICFAMilhEwC9hLoHGrPkZDdktCg2UGkB4JKRITABICZggkJIwRnJI0CCFJMBBUgnS+Jl/W9uhuop5AiCISfaXzagpObsxPNKRMoz3OBtplvUAItQF4KPga7eBU99h7qGMudboKVM00Qig8VA7CszXkz8LhKQHABwSgPwtoCPq6KKCx1aALChLhXAr9Gqgt2M2bQF51s48ARh63RynN1XHBAAAhLLp3yX+fFYliZaKC0DDWNq+XmABeISeAirBYLjvzU6ql5D4r+ngpwLkGbvyBGDcM+ao6KKIo+7SpBCS8SEn4wzyh/XmpRKo1BbgSRnOBABH37VpIUSc42DYxKIDo/b5FGcIJIsLQNrjTAAMHX3XprlIbrxzPqTy6fGFJ2ZbHiEpfwXIOwZ6DDZkVF5fkXRUrwAy0h9w5AJOfq8K8mlJQwQTohIE9gkYpjAhYJzkeNZFTeMCxkHIAOZImINsCvs5IlogzCHZCmmxgMVk1umULCEAmUy6AUZ532Zxll2bTjNEvtfRpZGJb5UfdAifaTJ9l1flkOoAg5/etYCp0WU0OJzbnh8eTjq6fDaMo1wJJMrWAJQUb+1td5wuJxhp35P9ybXCJnmYTFptSbaZ97lnDDpTAnX0KoHJ7oG3E1hcbhzJutVQdBN5AmBIjnL9Gzp6VwBTGUfHP4HfqTcvbiA/OFQO/AEBmEe1DsD3lx0iCKnUv0wDMzUjTwcw6WwL8ByFzpMAMFkZ7X+WHUg9P5sigEuhIDzc2RZg8ugUABiGo/IvEsuUtJk9yBMAOVwBzFliCHKjClhFEP7eyTDDMO+tNytuoUAHcLYCeGfBCpAIxy4F9P3h0IBt9U63MdQVfSeI/+Fg6J7Ats7Hyg1KbO47Vet3tLjAWk3I1wFMNjiJcc+YM7sCxLtjb5SJa0nMSdO8f3945xnZohP1Q9rgR50YfwSVXf6HL+8/KZ3R88k5TUiEo68KTFBKCNhHYh/APwJ4JBhpf7h2zksjTwBoODsF+MzMjNkBtPGhxoS5759Izp1sWpqS9z5BZ9fr3l0QE4id7ySO24Bsi1XlIpPCqtfWXs4jMA/kSXnUpQMA6i4A1SmBvoYZWwES3n39lqLN5N8kw7Gees052DVwDkEnVVGH/H+Y891yg2TgtHJjaHh+4Ii5GpGvBDq0A2TM9IysAPFQbAtB+8TN4sbJ6mOuQzSdloZ52FFqXZkrSnYDo/75J1pSydQDhTu+M0sgTH8deCmJRDh2Kan/XXRANsXZrfFN0ZVuzrvv0l1zQWfav6RvOCJKnFxmxEvccta0fGSFaeIcpTkyybK2cDeR6IpuypaDLc0fyRZ6eF+15WHt4GkYW+ck8kfAaJAt33RCU+USSgr7HLJXM/K3AGC42MA8mMULKbqNRCh6BQxEyr38HCwdb9At5Yc5gwkVrWOcC0rfdZw3SaXL0RFKOKLjAvJPAcI+Z0VV9S4AtgWa3YLCu5oTGr0dxIWVPaiUB3AlE3eyu+9tUnmFDQAo3u1kXPyK2+cxVSZP0DSusHlflUmzfL08ACDO2h/eWTc9ILG579QkRn7GSl9+Fl/w93Q86gYfMvlJh0OH/KNjzmocpb3HOZjZUcYxN5C/rMr7R2ePcV5K3i+6zYzW72iJh6NbZfLnper1lsADwZ6OL7vBS/yK2+fJyc1fFg86LWtrmE7yCdOfCPV3OJy7JuQJQLD3oy8AGHL2KD8eD0UvcoMJrd/hi3fFNiRbGn9FcDNBR/EJeTSEHwfSrRe4wQ8AGCnPOhJzy48EAMQc04Xp6CMTdYtbf988ulse8eaW9bXs+IlQ9AGQTo894yS/GIi0fbkaK1wi1L8cMC8TeQGBYKXP53DyLNPet7tZgiURjj4F8M0Ohu4JRtpPdEpXq3d5kieMjoMoG4OZfQCPk7pHhv4tYM7ZXU7RFMShT987PzM2/noa5psAngLpZEDLkC2afQLAPwV72pcA9gJwGcibnP5Ck7M+Dyjq9Rr3LtzaVrSOwP5NfSdP0DibxDsArAJwaumS8U6mxi+aTd+5c3v/0Zn+4gCDodh5Jl8LoCyDm4KR9o2V0K9AuCyQcIBEUsBgNqWN5kCYo0mPYILN5f6mAn7dGmk/GbBLEZPOfIM+7zYAjq6GAQDEcoDXpjO6NhGKJUG9nM2wKS+AhSQWApyfArxupmAR8AP40ufPva7d1fLtJvAFxzxkVEUtQeNuQFXpKpPb0lweKmvPvEhiRzRygnstZ+vWm9bupdBXDXOT1AMA/xzAW0meQXIZQD9ss5HUAt0XPDj27tbr1rr68gdDsfNA/IUzFvB8640dT1Q6R8OEvgaorreXJZGT4sfWuOJL4fOAZmVRKAGjhLqDkY4PO9W8K0FFXz+r+1Dm39yepGl8HMKMRA3npvixFYD5N7cnJVw9fSw5hZ71wPyLQKQjUg/qlXz9Eg4Yac+OaucK9LbdC+hLMyEEuVneippXW3s6tkL1tfY5haQRQTcE0otX+iOdT9drnkq+fkL313rqCPZ0XAmiU9Oeb6GEDpCLYE/7JggD9WeoKNKQ7jIy3lNaIx2X17PW3vDl/SeJOMnpeC88vW7MG4y0x3zwroB0F6TpcbXLKQriSHlMhGIbQV3jKB+eG5BSIL5tmLzS39vuuJRdzdNCHAzH3i3hwsn4v2I2+Z8EI+3OFMUKEO+OvdEQ1pnCuaRWVHABVhEE3d4a6VgHVHB6GNp819J0Jn0rqXPrxRig5wDe1ejhznlb26btStSWE4iDXQPniOZHCoWB0CWBSEf1JyUHSIRjJ8DU38LgcgCnCFhGYKGkFhJNEFuyOZ8wBmKMwpiIscmKL6NZZRmDkPaC3Atgj4gXffLuXrDg+Ben/A0qPpYPX95/UiajT0i4EIRjC5g99KqEp0D8hKZxT7C3zXEw5XTikDAYuhDCysDI2Bn1OIHMBGqyywxu6l8hL840TXMVyRUQAoDmAZyLbJz6BKD9BIYh7hc1RCEp4ueA8YNg5OInZlUCpaMQ/w1OxoOEoKVlxgAAAABJRU5ErkJggg==;" vertex="1" parent="_772xL04JrfMcwc0xYAd-8">
          <mxGeometry x="90" y="30" width="320" height="320" as="geometry" />
        </mxCell>
      </root>
    </mxGraphModel>
  </diagram>
</mxfile>
